<?xml version="1.0" encoding="UTF-8"?>
<svg id="Camada_1" data-name="Camada 1" xmlns="http://www.w3.org/2000/svg" viewBox="0 0 1016.2 481">
  <defs>
    <style>
      .cls-1 {
        fill: #f4f1de;
        stroke-width: 0px;
      }
    </style>
  </defs>
  <g>
    <path class="cls-1" d="M280.77,477.73c-10.42-2.19-19.58-5.23-27.5-9.14-2.09-1-3.14-2.41-3.14-4.23,0-.91.27-1.91.82-3l5.46-11.05c1-2.09,2.41-3.14,4.23-3.14.91,0,1.91.27,3,.82,7.1,3.36,14.74,5.96,22.93,7.78,8.19,1.82,16.19,2.73,24.02,2.73,13.73,0,24.93-2.71,33.57-8.12,8.64-5.41,14.83-12.24,18.56-20.47,3.73-8.23,5.59-16.85,5.59-25.86v-3.55c-6.37,8.92-14.26,16.17-23.68,21.77s-20.08,8.39-32,8.39c-14.83,0-28.11-3.48-39.85-10.44-11.74-6.96-20.88-16.67-27.43-29.13-6.55-12.46-9.82-26.56-9.82-42.3s3.27-31.2,9.82-44.21c6.55-13.01,15.69-23.15,27.43-30.43,11.74-7.28,25.02-10.92,39.85-10.92,12.19,0,23.04,2.68,32.55,8.05,9.51,5.37,17.4,12.65,23.68,21.83l.27-21.43c0-1.73.47-3.04,1.43-3.96.96-.91,2.29-1.36,4.03-1.36h11.74c3.64,0,5.46,1.82,5.46,5.46v131.96c0,13.74-2.91,26.47-8.73,38.21-5.82,11.74-14.74,21.18-26.75,28.32-12.01,7.14-26.88,10.71-44.62,10.71-10.19,0-20.49-1.09-30.91-3.27ZM342.18,399.81c8.59-5.55,15.33-12.94,20.2-22.18,4.86-9.23,7.3-19.08,7.3-29.55s-2.45-20.38-7.36-30.02c-4.92-9.64-11.67-17.47-20.27-23.47-8.59-6.01-18.22-9.01-28.86-9.01s-19.81,2.66-28.04,7.99c-8.23,5.32-14.64,12.74-19.24,22.24-4.6,9.51-6.89,20.31-6.89,32.41s2.32,21.88,6.96,30.98c4.64,9.1,11.08,16.2,19.31,21.29,8.23,5.1,17.58,7.64,28.04,7.64s20.26-2.78,28.86-8.32Z"/>
    <path class="cls-1" d="M530.96,272.21c2,1.18,3,2.68,3,4.5,0,1-.27,2-.82,3l-5.32,10.51c-1.09,2-2.5,3-4.23,3-1,0-2.09-.32-3.27-.95-8.01-4.19-15.65-6.28-22.93-6.28s-13.67,2.44-19.99,7.3c-6.32,4.87-11.42,11.64-15.28,20.33-3.87,8.69-5.8,18.45-5.8,29.27v81.06c0,3.64-1.82,5.46-5.46,5.46h-12.42c-3.64,0-5.46-1.82-5.46-5.46v-152.16c0-3.64,1.82-5.46,5.46-5.46h10.64c3.64,0,5.51,1.77,5.6,5.32l.54,17.33c5.64-8.1,11.94-14.37,18.9-18.83,6.96-4.46,15.63-6.69,26-6.69,9.74,0,20.01,2.92,30.84,8.73Z"/>
    <path class="cls-1" d="M670.96,266.34h11.74c3.64,0,5.46,1.82,5.46,5.46v152.16c0,3.64-1.82,5.46-5.46,5.46h-11.6c-3.55,0-5.42-1.77-5.6-5.32l-.27-21.97c-6.28,9.46-14.15,16.92-23.61,22.38-9.46,5.46-20.29,8.19-32.48,8.19-14.74,0-28.02-3.73-39.85-11.19-11.83-7.46-21.06-17.65-27.7-30.57-6.64-12.92-9.96-27.2-9.96-42.85s3.34-29.79,10.03-42.71c6.69-12.92,15.94-23.13,27.77-30.63,11.83-7.5,25.06-11.26,39.71-11.26,12.37,0,23.27,2.71,32.69,8.12,9.41,5.41,17.21,12.81,23.4,22.17l.27-22.11c.18-3.55,2-5.32,5.46-5.32ZM638.69,402.12c8.6-5.37,15.31-12.74,20.13-22.11,4.82-9.37,7.23-19.88,7.23-31.52s-2.41-22.24-7.23-31.79c-4.82-9.55-11.53-17.06-20.13-22.52-8.6-5.46-18.31-8.19-29.13-8.19s-20.11,2.73-28.39,8.19c-8.28,5.46-14.69,12.94-19.24,22.45-4.55,9.51-6.82,20.13-6.82,31.86s2.27,22.15,6.82,31.52c4.55,9.37,10.94,16.74,19.17,22.11,8.23,5.37,17.67,8.05,28.32,8.05s20.67-2.68,29.27-8.05Z"/>
    <path class="cls-1" d="M791.86,429.42h-13.37c-3.09,0-5.19-1.41-6.28-4.23l-61.14-152.57c-.37-.82-.55-1.68-.55-2.59,0-1.18.41-2.09,1.23-2.73s2-.96,3.55-.96h14.19c3.09,0,5.19,1.45,6.28,4.36l49.53,130.05,49.27-130.05c1.09-2.91,3.18-4.36,6.28-4.36h14.47c1.55,0,2.73.32,3.55.96.82.64,1.23,1.55,1.23,2.73,0,.91-.18,1.78-.54,2.59l-61.27,152.57c-1.09,2.82-3.23,4.23-6.42,4.23Z"/>
    <path class="cls-1" d="M905.8,421.78c-12.28-7.55-22.02-17.79-29.2-30.7-7.19-12.92-10.78-27.06-10.78-42.44s3.34-29.73,10.03-42.78c6.69-13.05,15.81-23.38,27.36-30.98,11.55-7.6,24.29-11.39,38.21-11.39,14.92,0,28.04,3.69,39.37,11.05,11.33,7.37,20.06,17.51,26.2,30.43,6.14,12.92,9.21,27.38,9.21,43.39v5.73c-.09,1.27-.61,2.25-1.57,2.93s-2.3,1.02-4.02,1.02h-121.32c1.27,10.55,4.66,19.81,10.16,27.77,5.5,7.96,12.42,14.08,20.74,18.35,8.32,4.28,17.26,6.41,26.81,6.41,15.56,0,29.66-5.18,42.3-15.55,1.28-1.1,2.5-1.64,3.69-1.64,1.55,0,2.86.82,3.96,2.45l6.41,9.42c.91,1.37,1.37,2.55,1.37,3.55,0,1.55-.73,2.92-2.19,4.1-7.73,6.46-16.36,11.44-25.86,14.94-9.51,3.5-19.72,5.25-30.64,5.25-14.55,0-27.97-3.77-40.25-11.33ZM983.93,309.47c-4.5-7.55-10.35-13.35-17.54-17.4-7.19-4.05-15.33-6.07-24.43-6.07s-16.7,2.07-24.16,6.21c-7.46,4.14-13.69,10.01-18.7,17.6-5,7.6-8.24,16.4-9.69,26.41h103.17c-1.28-10.28-4.16-19.2-8.66-26.75Z"/>
  </g>
  <g>
    <g>
      <path class="cls-1" d="M394.72,59.71c11.82,7.5,21.08,17.72,27.77,30.63,6.69,12.92,10.03,27.16,10.03,42.71s-3.34,29.93-10.03,42.85c-6.69,12.92-15.92,23.11-27.7,30.57-11.78,7.46-25.04,11.19-39.78,11.19-12.19,0-23.04-2.73-32.55-8.19-9.51-5.46-17.4-12.92-23.67-22.38l-.27,21.97c0,1.73-.48,3.05-1.43,3.96-.96.91-2.3,1.37-4.02,1.37h-11.6c-3.64,0-5.46-1.82-5.46-5.46V6.55c0-3.64,1.82-5.46,5.46-5.46h12.42c3.64,0,5.46,1.82,5.46,5.46v70.42c6.18-8.83,14.01-15.78,23.47-20.88,9.46-5.09,20.2-7.64,32.21-7.64,14.65,0,27.88,3.76,39.71,11.26ZM383.05,187.09c8.23-5.37,14.62-12.74,19.17-22.11,4.55-9.37,6.82-19.88,6.82-31.52s-2.27-22.36-6.82-31.86c-4.55-9.5-10.97-16.99-19.24-22.45-8.28-5.46-17.79-8.19-28.52-8.19s-20.52,2.73-29.07,8.19c-8.55,5.46-15.24,12.96-20.06,22.52-4.82,9.55-7.23,20.15-7.23,31.79s2.41,22.15,7.23,31.52c4.82,9.37,11.53,16.74,20.13,22.11,8.6,5.37,18.31,8.05,29.13,8.05s20.22-2.68,28.45-8.05Z"/>
      <path class="cls-1" d="M462.8,18.56V5.46c0-3.64,1.82-5.46,5.46-5.46h12.42c3.64,0,5.46,1.82,5.46,5.46v13.1c0,3.64-1.82,5.46-5.46,5.46h-12.42c-3.64,0-5.46-1.82-5.46-5.46ZM480.68,214.38h-12.42c-3.64,0-5.46-1.82-5.46-5.46V56.77c0-3.64,1.82-5.46,5.46-5.46h12.42c3.64,0,5.46,1.82,5.46,5.46v152.16c0,3.64-1.82,5.46-5.46,5.46Z"/>
      <path class="cls-1" d="M655.75,51.31h11.74c3.64,0,5.46,1.82,5.46,5.46v152.16c0,3.64-1.82,5.46-5.46,5.46h-11.6c-3.55,0-5.41-1.77-5.59-5.32l-.27-21.97c-6.28,9.46-14.15,16.92-23.61,22.38-9.46,5.46-20.29,8.19-32.48,8.19-14.74,0-28.02-3.73-39.85-11.19-11.83-7.46-21.06-17.65-27.7-30.57-6.64-12.92-9.96-27.2-9.96-42.85s3.34-29.79,10.03-42.71c6.69-12.92,15.94-23.13,27.77-30.63,11.82-7.5,25.06-11.26,39.71-11.26,12.37,0,23.27,2.71,32.68,8.12,9.42,5.41,17.22,12.81,23.4,22.17l.27-22.11c.18-3.55,2-5.32,5.46-5.32ZM623.47,187.09c8.6-5.37,15.31-12.74,20.13-22.11,4.82-9.37,7.23-19.88,7.23-31.52s-2.41-22.24-7.23-31.79c-4.82-9.55-11.53-17.06-20.13-22.52-8.6-5.46-18.31-8.19-29.13-8.19s-20.11,2.73-28.39,8.19c-8.28,5.46-14.69,12.94-19.24,22.45-4.55,9.51-6.82,20.13-6.82,31.86s2.27,22.15,6.82,31.52c4.55,9.37,10.94,16.74,19.17,22.11,8.24,5.37,17.68,8.05,28.32,8.05s20.67-2.68,29.27-8.05Z"/>
    </g>
    <g>
      <path class="cls-1" d="M738.93,126.89c-1.71-.76-3.75-1.14-6.12-1.14h-16.42v34.97h8.26v-12.66h5.56c2.79,0,5.18-.3,7.18-.9,2-.6,3.65-1.74,4.95-3.42,1.31-1.68,1.96-4,1.96-6.97,0-2.54-.47-4.64-1.41-6.28-.93-1.64-2.26-2.84-3.97-3.6ZM734.72,141.01c-1.13.78-2.72,1.17-4.77,1.17h-5.3v-9.64h6.31c1.87,0,3.25.42,4.13,1.24.88.83,1.32,2.01,1.32,3.52,0,1.7-.57,2.93-1.7,3.71Z"/>
      <polygon class="cls-1" points="774.56 153.94 758.56 153.94 758.56 146.15 773.45 146.15 773.45 139.95 758.56 139.95 758.56 132.53 774.19 132.53 774.19 125.75 750.3 125.75 750.3 160.72 774.56 160.72 774.56 153.94"/>
      <path class="cls-1" d="M804.71,156.4c.95-1.61,1.43-3.49,1.43-5.64,0-1.7-.3-3.13-.9-4.29-.6-1.16-1.48-2.15-2.65-2.94s-2.7-1.58-4.61-2.36c-.6-.21-1.18-.44-1.75-.69-1.49-.53-2.56-.95-3.23-1.27-1.41-.67-2.48-1.36-3.2-2.07-.72-.71-1.09-1.54-1.09-2.49s.43-1.77,1.3-2.33c.87-.56,2.13-.85,3.79-.85s3.13.26,4.53.79c1.4.53,3.12,1.4,5.17,2.6v-7.21c-1.8-1.02-3.55-1.74-5.25-2.15s-3.46-.61-5.3-.61c-2.75,0-5.09.41-6.99,1.22-1.91.81-3.35,1.95-4.32,3.42s-1.46,3.15-1.46,5.06c0,2.01.51,3.74,1.54,5.19,1.02,1.45,2.51,2.74,4.45,3.87.74.46,2.03,1.08,3.87,1.85l2.28.9c1.94.74,3.36,1.46,4.26,2.15.9.69,1.35,1.54,1.35,2.57,0,1.13-.48,2.03-1.43,2.7-.96.67-2.39,1.01-4.29,1.01-1.66,0-3.47-.3-5.43-.9-1.96-.6-4.19-1.54-6.7-2.81v7.31c1.77,1.1,3.69,1.89,5.78,2.38,2.08.49,4.24.74,6.46.74,3.21,0,5.84-.46,7.89-1.38s3.55-2.18,4.5-3.79Z"/>
      <path class="cls-1" d="M835.43,156.4c.95-1.61,1.43-3.49,1.43-5.64,0-1.7-.3-3.13-.9-4.29-.6-1.16-1.48-2.15-2.65-2.94-1.17-.79-2.7-1.58-4.61-2.36-.6-.21-1.18-.44-1.75-.69-1.49-.53-2.56-.95-3.23-1.27-1.41-.67-2.48-1.36-3.2-2.07-.72-.71-1.09-1.54-1.09-2.49s.43-1.77,1.3-2.33c.87-.56,2.13-.85,3.79-.85s3.13.26,4.53.79c1.4.53,3.12,1.4,5.17,2.6v-7.21c-1.8-1.02-3.55-1.74-5.25-2.15s-3.46-.61-5.3-.61c-2.75,0-5.09.41-6.99,1.22-1.91.81-3.35,1.95-4.32,3.42s-1.46,3.15-1.46,5.06c0,2.01.51,3.74,1.54,5.19,1.02,1.45,2.51,2.74,4.45,3.87.74.46,2.03,1.08,3.87,1.85l2.28.9c1.94.74,3.36,1.46,4.26,2.15.9.69,1.35,1.54,1.35,2.57,0,1.13-.48,2.03-1.43,2.7-.96.67-2.39,1.01-4.29,1.01-1.66,0-3.47-.3-5.43-.9-1.96-.6-4.19-1.54-6.7-2.81v7.31c1.77,1.1,3.69,1.89,5.78,2.38,2.08.49,4.24.74,6.46.74,3.21,0,5.84-.46,7.89-1.38s3.55-2.18,4.5-3.79Z"/>
      <path class="cls-1" d="M872.97,153.03c1.15-2.72,1.72-5.97,1.72-9.75,0-6.36-1.47-11.01-4.4-13.96-2.93-2.95-7.03-4.43-12.29-4.43-3.89,0-7.06.75-9.53,2.25-2.47,1.5-4.28,3.61-5.41,6.33s-1.7,5.97-1.7,9.75c0,6.32,1.46,10.96,4.37,13.91,2.92,2.95,7,4.42,12.26,4.42,3.89,0,7.06-.74,9.54-2.22,2.47-1.48,4.28-3.59,5.43-6.3ZM865.13,150.01c-.65,1.73-1.58,2.99-2.78,3.79-1.2.79-2.65,1.19-4.35,1.19-2.82,0-4.89-1.03-6.2-3.1-1.31-2.07-1.96-4.93-1.96-8.61,0-2.76.33-5,.98-6.73.65-1.73,1.59-3,2.81-3.81s2.68-1.22,4.37-1.22c2.83,0,4.88,1.03,6.17,3.1,1.29,2.07,1.94,4.95,1.94,8.66,0,2.75-.33,5-.98,6.73Z"/>
      <path class="cls-1" d="M887.96,153.14h13.15c.93,3.01,1.7,5.55,2.29,7.58h8.32l-11.55-34.97h-11.28l-11.6,34.97h8.32c.77-2.53,1.57-5.05,2.35-7.58ZM893.45,135.6l.9-2.91h.37c.88,2.86,1.7,5.51,2.44,7.95.65,2.01,1.25,3.89,1.81,5.67h-8.91c.75-2.48,1.32-4.29,1.69-5.4l1.7-5.3Z"/>
      <path class="cls-1" d="M939.8,156.4c.95-1.61,1.43-3.49,1.43-5.64,0-1.7-.3-3.13-.9-4.29-.6-1.16-1.48-2.15-2.65-2.94s-2.7-1.58-4.61-2.36c-.6-.21-1.18-.44-1.75-.69-1.49-.53-2.56-.95-3.23-1.27-1.41-.67-2.48-1.36-3.2-2.07-.72-.71-1.09-1.54-1.09-2.49s.43-1.77,1.3-2.33c.87-.56,2.13-.85,3.79-.85s3.13.26,4.53.79c1.4.53,3.12,1.4,5.17,2.6v-7.21c-1.8-1.02-3.55-1.74-5.25-2.15-1.7-.41-3.46-.61-5.3-.61-2.75,0-5.09.41-6.99,1.22-1.91.81-3.35,1.95-4.32,3.42s-1.46,3.15-1.46,5.06c0,2.01.51,3.74,1.54,5.19,1.02,1.45,2.51,2.74,4.45,3.87.74.46,2.03,1.08,3.87,1.85l2.28.9c1.94.74,3.36,1.46,4.26,2.15.9.69,1.35,1.54,1.35,2.57,0,1.13-.48,2.03-1.43,2.7-.96.67-2.39,1.01-4.29,1.01-1.66,0-3.47-.3-5.43-.9-1.96-.6-4.19-1.54-6.7-2.81v7.31c1.77,1.1,3.69,1.89,5.78,2.38,2.08.49,4.24.74,6.46.74,3.21,0,5.84-.46,7.89-1.38s3.55-2.18,4.5-3.79Z"/>
      <polygon class="cls-1" points="724.66 202.24 739.54 202.24 739.54 196.04 724.66 196.04 724.66 188.63 740.29 188.63 740.29 181.84 716.39 181.84 716.39 216.81 740.66 216.81 740.66 210.03 724.66 210.03 724.66 202.24"/>
      <path class="cls-1" d="M781.5,201.77l.26,3.87h-.32c-1.27-2.33-2.7-4.89-4.29-7.68-2.61-4.63-5.72-10-9.32-16.11h-8.95v34.97h8.26c0-7.59-.14-14.68-.42-21.24-.07-.99-.12-1.84-.16-2.54h.26c1.41,2.51,3.06,5.4,4.93,8.69,2.65,4.59,5.55,9.63,8.69,15.1h8.95v-34.97h-8.27c0,7.31.12,13.95.37,19.92Z"/>
      <polygon class="cls-1" points="806.03 202.24 820.92 202.24 820.92 196.04 806.03 196.04 806.03 188.63 821.66 188.63 821.66 181.84 797.77 181.84 797.77 216.81 822.03 216.81 822.03 210.03 806.03 210.03 806.03 202.24"/>
      <path class="cls-1" d="M849.63,209.82c-.35.42-.9.75-1.64.98-.74.23-1.56.35-2.44.35-2.12,0-3.94-.49-5.46-1.46-1.52-.97-2.68-2.36-3.5-4.16s-1.22-3.95-1.22-6.46.43-4.71,1.3-6.28c.86-1.57,2.03-2.69,3.5-3.36,1.46-.67,3.2-1.01,5.22-1.01,1.91,0,3.7.26,5.38.79,1.68.53,3.45,1.25,5.32,2.17v-7.42c-1.48-.85-3.24-1.55-5.27-2.12-2.03-.56-4.23-.85-6.6-.85-3.64,0-6.75.72-9.32,2.15-2.58,1.43-4.56,3.52-5.93,6.25-1.38,2.74-2.07,6.03-2.07,9.88s.72,7.31,2.15,10.07c1.43,2.75,3.47,4.83,6.12,6.23,2.65,1.39,5.81,2.09,9.48,2.09,2.89,0,5.48-.42,7.76-1.27,2.28-.85,4-1.89,5.17-3.13v-13.93h-7.95v10.49Z"/>
      <polygon class="cls-1" points="887.99 172.63 878.77 172.63 875.64 179.73 882.53 179.73 887.99 172.63"/>
      <path class="cls-1" d="M879.51,181c-3.89,0-7.06.75-9.53,2.25-2.47,1.5-4.28,3.61-5.41,6.33s-1.7,5.97-1.7,9.75c0,6.32,1.46,10.96,4.37,13.91,2.92,2.95,7,4.42,12.26,4.42,3.89,0,7.06-.74,9.54-2.22,2.47-1.48,4.28-3.59,5.43-6.3,1.15-2.72,1.72-5.97,1.72-9.75,0-6.36-1.47-11.01-4.4-13.96-2.93-2.95-7.03-4.43-12.29-4.43ZM886.64,206.11c-.65,1.73-1.58,2.99-2.78,3.79-1.2.79-2.65,1.19-4.35,1.19-2.82,0-4.89-1.03-6.2-3.1-1.31-2.07-1.96-4.93-1.96-8.61,0-2.76.33-5,.98-6.73.65-1.73,1.59-3,2.81-3.81s2.68-1.22,4.37-1.22c2.83,0,4.88,1.03,6.17,3.1,1.29,2.07,1.94,4.95,1.94,8.66,0,2.75-.33,5-.98,6.73Z"/>
      <path class="cls-1" d="M912.04,207.35c-1.55-1.92-2.33-4.65-2.33-8.19,0-2.51.38-4.56,1.14-6.14.76-1.59,1.83-2.76,3.2-3.5,1.38-.74,3.02-1.11,4.93-1.11,1.77,0,3.54.26,5.32.77,1.78.51,3.58,1.25,5.38,2.2v-7.42c-1.84-1.02-3.77-1.77-5.8-2.25-2.03-.48-4.11-.72-6.22-.72-3.82,0-6.94.74-9.38,2.23-2.43,1.48-4.22,3.59-5.35,6.3s-1.7,5.97-1.7,9.75c0,6.36,1.47,11.01,4.4,13.96,2.93,2.95,6.99,4.42,12.19,4.42,2.51,0,4.82-.28,6.94-.85,2.12-.56,3.92-1.32,5.41-2.28v-7.26c-3.64,1.98-7.26,2.97-10.86,2.97-3.28,0-5.7-.96-7.26-2.89Z"/>
      <rect class="cls-1" x="936.62" y="181.84" width="8.26" height="34.97"/>
      <path class="cls-1" d="M968.25,181c-3.89,0-7.06.75-9.53,2.25-2.47,1.5-4.28,3.61-5.41,6.33s-1.7,5.97-1.7,9.75c0,6.32,1.46,10.96,4.37,13.91,2.92,2.95,7,4.42,12.26,4.42,3.89,0,7.06-.74,9.54-2.22,2.47-1.48,4.28-3.59,5.43-6.3,1.15-2.72,1.72-5.97,1.72-9.75,0-6.36-1.47-11.01-4.4-13.96-2.93-2.95-7.03-4.43-12.29-4.43ZM975.38,206.11c-.65,1.73-1.58,2.99-2.78,3.79-1.2.79-2.65,1.19-4.35,1.19-2.82,0-4.89-1.03-6.2-3.1-1.31-2.07-1.96-4.93-1.96-8.61,0-2.76.33-5,.98-6.73.65-1.73,1.59-3,2.81-3.81s2.68-1.22,4.37-1.22c2.83,0,4.88,1.03,6.17,3.1s1.94,4.95,1.94,8.66c0,2.75-.33,5-.98,6.73Z"/>
      <path class="cls-1" d="M1015.3,202.56c-.6-1.16-1.48-2.15-2.65-2.94-1.17-.79-2.7-1.58-4.61-2.36-.6-.21-1.18-.44-1.75-.69-1.49-.53-2.56-.95-3.23-1.27-1.41-.67-2.48-1.36-3.2-2.07-.72-.71-1.09-1.54-1.09-2.49s.43-1.77,1.3-2.33c.87-.56,2.13-.85,3.79-.85s3.13.26,4.53.79c1.4.53,3.12,1.4,5.17,2.6v-7.21c-1.8-1.02-3.55-1.74-5.25-2.15s-3.46-.61-5.3-.61c-2.75,0-5.09.41-6.99,1.22-1.91.81-3.35,1.95-4.32,3.42s-1.46,3.15-1.46,5.06c0,2.01.51,3.74,1.54,5.19,1.02,1.45,2.51,2.74,4.45,3.87.74.46,2.03,1.08,3.87,1.85l2.28.9c1.94.74,3.36,1.46,4.26,2.15.9.69,1.35,1.54,1.35,2.57,0,1.13-.48,2.03-1.43,2.7-.96.67-2.39,1.01-4.29,1.01-1.66,0-3.47-.3-5.43-.9-1.96-.6-4.19-1.54-6.7-2.81v7.31c1.77,1.1,3.69,1.89,5.78,2.38,2.08.49,4.24.74,6.46.74,3.21,0,5.84-.46,7.89-1.38,2.05-.92,3.55-2.18,4.5-3.79.95-1.61,1.43-3.49,1.43-5.64,0-1.7-.3-3.13-.9-4.29Z"/>
    </g>
  </g>
  <path class="cls-1" d="M121.35,235.96c6.24-16.31,14-31.81,23.64-45.77,53.59-8,92.71-56.13,88.6-111.03h0c-53.91,4.04-95.17,48.34-96.57,101.24-8.85,12.29-16.27,25.68-22.45,39.74.19-35.64-18.48-70.29-51.8-88.88-26.6,47.68-10.44,107.59,35.89,135.64-4.93,19.27-8.22,38.84-10.33,57.77-9.59-34.16-36.89-62.25-73.86-71.07-12.61,52.87,18.85,105.89,70.63,120.61-.49,22.94.37,43.08,1.44,58.08-15.75-32.18-48.13-54.96-86.44-56.61-2.36,54.77,39.34,101.2,93.66,105.12,0,.07,0,.14,0,.2h0c.5-.02.99-.07,1.49-.1.5.03.99.08,1.49.1h0c0-.07,0-.14,0-.2,54.32-3.92,96.02-50.35,93.66-105.12h0c-42.24,1.82-77.29,29.32-90.77,66.78-1.27-14.64-2.71-38.46-2.11-66.67,50.84,1.98,96.09-34.55,103.78-86.03h0c-41.78-6.24-81.39,14.06-101.76,48.24,1.89-21.53,5.22-44.19,10.72-66.37,48.21,15.25,101.26-7.64,122.52-54.88h0c-38.71-17.42-82.56-8.45-111.43,19.22Z"/>
</svg>